HIERARCHY
ROOT Hips
{
  OFFSET 44.238 84.281 20.2574
  CHANNELS 6 Xposition Yposition Zposition Zrotation Xrotation Yrotation
  JOINT spine
  {
    OFFSET 0 5.95438 0.342407
    CHANNELS 3 Zrotation Xrotation Yrotation
    JOINT spine1
    {
      OFFSET 0 8.85602 0
      CHANNELS 3 Zrotation Xrotation Yrotation
      JOINT spine2
      {
        OFFSET 0 8.48567 0
        CHANNELS 3 Zrotation Xrotation Yrotation
        JOINT Neck
        {
          OFFSET 0 21.7863 1.0387
          CHANNELS 3 Zrotation Xrotation Yrotation
          JOINT Head
          {
            OFFSET 0 6.5822 0
            CHANNELS 3 Zrotation Xrotation Yrotation
            End Site
            {
              OFFSET 0 15.9326 -5.25436
            }
          }
        }
        JOINT RightShoulder
        {
          OFFSET -3.57307 9.16386 -0.497525
          CHANNELS 3 Zrotation Xrotation Yrotation
          JOINT RightArm
          {
            OFFSET 0 12.0192 0
            CHANNELS 3 Zrotation Xrotation Yrotation
            JOINT RightArmRoll
            {
              OFFSET 0 6.06755 0
              CHANNELS 3 Zrotation Xrotation Yrotation
              JOINT RightForeArm
              {
                OFFSET 0 17.6726 0
                CHANNELS 3 Zrotation Xrotation Yrotation
                JOINT RightForeArmRoll
                {
                  OFFSET 0 6.80872 0
                  CHANNELS 3 Zrotation Xrotation Yrotation
                  JOINT RightHand
                  {
                    OFFSET 0 13.6636 0
                    CHANNELS 3 Zrotation Xrotation Yrotation
                    End Site
                    {
                      OFFSET 0 0 0
                    }
                  }
                }
              }
            }
          }
        }
        JOINT LeftShoulder
        {
          OFFSET 3.57307 9.16386 -0.497525
          CHANNELS 3 Zrotation Xrotation Yrotation
          JOINT LeftArm
          {
            OFFSET 0 12.0192 0
            CHANNELS 3 Zrotation Xrotation Yrotation
            JOINT LeftArmRoll
            {
              OFFSET 0 6.06755 0
              CHANNELS 3 Zrotation Xrotation Yrotation
              JOINT LeftForeArm
              {
                OFFSET 0 17.6726 0
                CHANNELS 3 Zrotation Xrotation Yrotation
                JOINT LeftForeArmRoll
                {
                  OFFSET 0 6.80872 0
                  CHANNELS 3 Zrotation Xrotation Yrotation
                  JOINT LeftHand
                  {
                    OFFSET 0 13.6636 0
                    CHANNELS 3 Zrotation Xrotation Yrotation
                    End Site
                    {
                      OFFSET 0 0 0
                    }
                  }
                }
              }
            }
          }
        }
      }
    }
  }
  JOINT RightUpLeg
  {
    OFFSET -5.27774 -0.967797 -0.811858
    CHANNELS 3 Zrotation Xrotation Yrotation
    JOINT RightUpLegRoll
    {
      OFFSET 0 16.0214 0
      CHANNELS 3 Zrotation Xrotation Yrotation
      JOINT RightLeg
      {
        OFFSET 0 -19.8401 0
        CHANNELS 3 Zrotation Xrotation Yrotation
        JOINT RightLegRoll
        {
          OFFSET 0 19.905 0
          CHANNELS 3 Zrotation Xrotation Yrotation
          JOINT RightFoot
          {
            OFFSET 0 16.5675 0
            CHANNELS 3 Zrotation Xrotation Yrotation
            JOINT RightToeBase
            {
              OFFSET 0 13.8496 0
              CHANNELS 3 Zrotation Xrotation Yrotation
              End Site
              {
                OFFSET 0.00587033 6.70727 -0.773117
              }
            }
          }
        }
      }
    }
  }
  JOINT LeftUpLeg
  {
    OFFSET 5.27774 -0.967797 -0.811858
    CHANNELS 3 Zrotation Xrotation Yrotation
    JOINT LeftUpLegRoll
    {
      OFFSET 0 16.0215 0
      CHANNELS 3 Zrotation Xrotation Yrotation
      JOINT LeftLeg
      {
        OFFSET 0 19.84 0
        CHANNELS 3 Zrotation Xrotation Yrotation
        JOINT LeftLegRoll
        {
          OFFSET 0 20.089 0
          CHANNELS 3 Zrotation Xrotation Yrotation
          JOINT LeftFoot
          {
            OFFSET 0 16.3835 0
            CHANNELS 3 Zrotation Xrotation Yrotation
            JOINT LeftToeBase
            {
              OFFSET 0 13.8496 0
              CHANNELS 3 Zrotation Xrotation Yrotation
              End Site
              {
                OFFSET -0.0263083 6.70727 -0.773117
              }
            }
          }
        }
      }
    }
  }
}
MOTION
Frames: 7
Frame Time: 0.00208333
45.7774 84.4555 19.1865 -2.69634 -1.5386 72.7638 -0.521882 -1.91182 -0.16547 -1.04627 0.180252 -0.287839 -1.04331 1.82517 -0.269998 23.0426 -13.8837 5.81283 -13.3497 16.3113 9.29484 85.3627 -0.375407 -2.99801 97.9686 36.167 -4.8762 3.02153e-014 6.75868e-015 -2.8625e-014 -3.64077 -0.0277049 -1.99258 -3.4112e-007 3.70609e-005 -3.0116 8.03012 -4.95137 0.697654 -46.3338 -7.28746 3.99432 -134.017 65.9598 47.7726 1.59028e-014 7.95139e-015 3.18055e-015 3.6414 -0.0255716 1.99083 -2.96735e-006 8.88831e-006 3.01162 -8.03004 -4.95107 -0.697575 179.68 3.06985 1.42572 180 7.01563e-015 178.993 178.774 5.67669 179.852 -4.10198e-006 -7.35052e-006 0.0619217 -18.8403 68.2383 19.7325 8.13068 25.233 -3.48525 -177.026 7.41096 -1.46839 4.54188e-006 -4.6773e-006 -0.958086 -3.64175 -9.81243 -0.0691702 3.49746e-007 1.50563e-005 -0.126141 19.1399 68.6954 -20.1269 -8.13649 25.2326 3.48772 
45.78 84.451 19.1939 -2.67884 -1.53099 72.7848 -0.522659 -1.91454 -0.165497 -1.04815 0.174814 -0.287805 -1.04519 1.81973 -0.269855 22.9573 -13.7499 5.77434 -13.2987 16.249 9.26454 85.3545 -0.36329 -2.99313 97.9446 36.1162 -4.84165 -6.36111e-015 1.82882e-014 9.54166e-015 -3.63969 -0.027377 -1.99255 -3.4112e-007 3.70609e-005 -3.0116 8.03012 -4.95137 0.697654 -46.364 -7.2891 3.99701 -133.816 65.9302 47.5591 1.59028e-015 1.27222e-014 -6.36111e-015 3.64142 -0.0255894 1.99083 -2.96735e-006 8.88831e-006 3.01162 -8.03004 -4.95107 -0.697575 179.66 3.05918 1.4424 180 7.01562e-015 178.993 178.765 5.67669 179.853 -4.10198e-006 -7.35052e-006 0.0620626 -18.8451 68.2438 19.7376 8.13068 25.233 -3.48525 -177.039 7.38815 -1.4625 4.54188e-006 -4.6773e-006 -0.958128 -3.645 -9.78153 -0.0696418 3.49746e-007 1.50563e-005 -0.125723 19.1364 68.6911 -20.1229 -8.13649 25.2326 3.48772 
45.7624 84.4475 19.1813 -2.6601 -1.52398 72.8055 -0.523582 -1.91723 -0.165529 -1.05031 0.169439 -0.287706 -1.04735 1.81435 -0.269703 22.8749 -13.6091 5.73634 -13.2487 16.1815 9.2358 85.3511 -0.349613 -2.98817 97.9157 36.0648 -4.8023 1.90833e-014 2.34566e-014 -1.43125e-014 -3.63889 -0.0271329 -1.99254 -3.4112e-007 3.70609e-005 -3.0116 8.03012 -4.95137 0.697654 -46.3896 -7.28799 3.99729 -133.613 65.8989 47.3423 8.82781e-032 1.59028e-015 -3.18055e-015 3.64144 -0.0256073 1.99083 -2.96735e-006 8.88831e-006 3.01162 -8.03004 -4.95107 -0.697575 179.64 3.04492 1.45856 180 7.01562e-015 178.992 178.756 5.67447 179.854 -4.10198e-006 -7.35052e-006 0.0621974 -18.8493 68.2487 19.742 8.13068 25.233 -3.48525 -177.051 7.36501 -1.4575 4.54188e-006 -4.6773e-006 -0.958171 -3.64887 -9.7533 -0.0700749 3.49746e-007 1.50563e-005 -0.125293 19.1338 68.6877 -20.1199 -8.13649 25.2326 3.48772 
45.7576 84.4464 19.1585 -2.64038 -1.51729 72.8262 -0.524653 -1.91998 -0.165566 -1.05278 0.163945 -0.287546 -1.04982 1.80886 -0.269544 22.7945 -13.46 5.69841 -13.1982 16.1065 9.20794 85.3521 -0.334092 -2.98303 97.8814 36.0125 -4.75775 6.36111e-015 1.11319e-014 -3.18055e-015 -3.63831 -0.0269517 -1.99253 -3.4112e-007 3.70609e-005 -3.0116 8.03012 -4.95137 0.697654 -46.4113 -7.28358 3.99476 -133.404 65.8659 47.1191 3.18055e-015 -1.59028e-015 -3.18055e-015 3.64146 -0.0256252 1.99083 -2.96735e-006 8.88831e-006 3.01162 -8.03004 -4.95107 -0.697575 179.621 3.02773 1.47439 180 7.01562e-015 178.992 178.748 5.67059 179.855 -4.10198e-006 -7.35052e-006 0.062325 -18.853 68.2531 19.746 8.13068 25.233 -3.48525 -177.063 7.34158 -1.45302 4.54188e-006 -4.6773e-006 -0.958213 -3.65313 -9.72708 -0.0704456 3.49746e-007 1.50563e-005 -0.124852 19.132 68.6851 -20.1177 -8.13649 25.2326 3.48772 
45.7471 84.4461 19.1531 -2.61976 -1.51088 72.847 -0.525856 -1.92277 -0.165608 -1.05552 0.158361 -0.287333 -1.05256 1.80327 -0.269378 22.7157 -13.3037 5.66054 -13.1474 16.0251 9.18084 85.3572 -0.317032 -2.97776 97.8426 35.9594 -4.70875 7.95139e-015 8.74653e-015 -4.77083e-015 -3.6379 -0.0268269 -1.99252 -3.4112e-007 3.70609e-005 -3.0116 8.03012 -4.95137 0.697654 -46.4295 -7.27629 3.98977 -133.19 65.8313 46.8906 4.77083e-015 1.43125e-014 -3.18055e-015 3.64148 -0.0256432 1.99083 -2.96735e-006 8.88831e-006 3.01162 -8.03004 -4.95107 -0.697575 179.602 3.00803 1.48994 180 7.01562e-015 178.992 178.74 5.66536 179.856 -4.10198e-006 -7.35052e-006 0.0624497 -18.8565 68.2571 19.7497 8.13068 25.233 -3.48525 -177.076 7.31787 -1.44895 4.54188e-006 -4.6773e-006 -0.958255 -3.65772 -9.70261 -0.0707597 3.49745e-007 1.50563e-005 -0.1244 19.1307 68.6831 -20.1161 -8.13649 25.2326 3.48772 
45.7317 84.4445 19.1463 -2.59833 -1.50468 72.8677 -0.527173 -1.92559 -0.165653 -1.05849 0.152715 -0.287073 -1.05552 1.79763 -0.269205 22.6385 -13.1416 5.62272 -13.0964 15.9384 9.15436 85.3657 -0.29874 -2.9724 97.8 35.9058 -4.65604 2.22639e-014 -4.77083e-015 -2.38542e-014 -3.63765 -0.026752 -1.99251 -3.4112e-007 3.70609e-005 -3.0116 8.03012 -4.95137 0.697654 -46.4446 -7.26655 3.98269 -132.973 65.7951 46.658 9.54166e-015 4.77083e-015 6.36111e-015 3.64149 -0.0256612 1.99083 -2.96735e-006 8.88831e-006 3.01162 -8.03004 -4.95107 -0.697575 179.584 2.98619 1.50522 180 7.01562e-015 178.992 178.732 5.65907 179.856 -4.10198e-006 -7.35052e-006 0.0625758 -18.8597 68.2609 19.753 8.13068 25.233 -3.48525 -177.088 7.29389 -1.44523 4.54188e-006 -4.6773e-006 -0.958297 -3.66257 -9.67959 -0.0710233 3.49746e-007 1.50563e-005 -0.123937 19.1298 68.6816 -20.115 -8.13649 25.2326 3.48772 
45.7224 84.4449 19.1372 -2.57619 -1.49862 72.8885 -0.528589 -1.92844 -0.165703 -1.06165 0.147036 -0.286773 -1.05868 1.79195 -0.269023 22.5626 -12.9747 5.58495 -13.0453 15.8477 9.12839 85.3771 -0.279523 -2.967 97.7544 35.8519 -4.60035 3.02153e-014 -1.15295e-014 -3.18055e-014 -3.63755 -0.0267206 -1.99251 -3.4112e-007 3.70609e-005 -3.0116 8.03012 -4.95137 0.697654 -46.4572 -7.25481 3.97388 -132.753 65.7576 46.4225 9.54166e-015 6.36111e-015 -0 3.64151 -0.0256794 1.99083 -2.96735e-006 8.88831e-006 3.01162 -8.03004 -4.95107 -0.697575 179.565 2.96261 1.52024 180 7.01562e-015 178.991 178.726 5.65207 179.857 -4.10198e-006 -7.35052e-006 0.0627077 -18.8627 68.2644 19.7562 8.13068 25.233 -3.48525 -177.099 7.26963 -1.44175 4.54188e-006 -4.6773e-006 -0.958339 -3.66765 -9.65776 -0.0712423 3.49745e-007 1.50563e-005 -0.123464 19.1294 68.6805 -20.1143 -8.13649 25.2326 3.48772 
